# xmcd CD database file
#
# Track frame offsets:
#	150
#	19321
#	41367
#	61308
#	92056
#	119886
#	150220
#
# Disc length: 3820 seconds
#
# Revision: 2
# Processed by: cddbd v1.4b41PL1 Copyright (c) Steve Scherf et al.
# Submitted via: Feurio! 1.50.2ß - http://www.feurio.com
#
DISCID=520eea07
DTITLE=Leo Kysela - Best slow Songs on CD-Rom
DYEAR=1900
DGENRE=
TTITLE0=Love would set me free
TTITLE1=Georgia on my mind
TTITLE2=Keep on movin'
TTITLE3=Miss you
TTITLE4=For a handful of trust
TTITLE5=Winternight
TTITLE6=Data-Track
EXTD=
EXTT0=
EXTT1=
EXTT2=
EXTT3=
EXTT4=
EXTT5=
EXTT6=
PLAYORDER=
